<?xml version="1.0" encoding="UTF-8" standalone="no"?>
<svg
   xmlns:dc="http://purl.org/dc/elements/1.1/"
   xmlns:cc="http://creativecommons.org/ns#"
   xmlns:rdf="http://www.w3.org/1999/02/22-rdf-syntax-ns#"
   xmlns:svg="http://www.w3.org/2000/svg"
   xmlns="http://www.w3.org/2000/svg"
   xmlns:xlink="http://www.w3.org/1999/xlink"
   xmlns:sodipodi="http://sodipodi.sourceforge.net/DTD/sodipodi-0.dtd"
   xmlns:inkscape="http://www.inkscape.org/namespaces/inkscape"
   version="1.1"
   width="24"
   height="24"
   id="svg3202"
   sodipodi:docname="office-database-edit.svg"
   inkscape:version="1.0 (1.0+r73+1)">
  <sodipodi:namedview
     inkscape:document-rotation="0"
     pagecolor="#ffffff"
     bordercolor="#666666"
     borderopacity="1"
     objecttolerance="10"
     gridtolerance="10"
     guidetolerance="10"
     inkscape:pageopacity="0"
     inkscape:pageshadow="2"
     inkscape:window-width="1920"
     inkscape:window-height="1017"
     id="namedview57"
     showgrid="true"
     inkscape:zoom="24.958333"
     inkscape:cx="11.61246"
     inkscape:cy="18.837042"
     inkscape:window-x="0"
     inkscape:window-y="30"
     inkscape:window-maximized="1"
     inkscape:current-layer="layer1-3">
    <inkscape:grid
       id="grid904"
       type="xygrid" />
  </sodipodi:namedview>
  <defs
     id="defs3204">
    <linearGradient
       x1="21.381216"
       y1="5.0524864"
       x2="21.381216"
       y2="44.137077"
       id="linearGradient3110"
       xlink:href="#linearGradient3125"
       gradientUnits="userSpaceOnUse"
       gradientTransform="matrix(0.48571425,0,0,0.5,0.34285661,7.750001)" />
    <linearGradient
       id="linearGradient3125">
      <stop
         id="stop3127"
         style="stop-color:#ffffff;stop-opacity:1"
         offset="0" />
      <stop
         id="stop3129"
         style="stop-color:#ffffff;stop-opacity:0.23529412"
         offset="0.08125819" />
      <stop
         id="stop3131"
         style="stop-color:#ffffff;stop-opacity:0.15686275"
         offset="0.92327863" />
      <stop
         id="stop3133"
         style="stop-color:#ffffff;stop-opacity:0.39215687"
         offset="1" />
    </linearGradient>
    <radialGradient
       cx="23.334524"
       cy="41.63604"
       r="22.627417"
       fx="23.334524"
       fy="41.63604"
       id="radialGradient3984"
       xlink:href="#linearGradient23419"
       gradientUnits="userSpaceOnUse"
       gradientTransform="matrix(0.48613594,0,0,0.19884311,0.65625012,19.220963)" />
    <linearGradient
       id="linearGradient23419">
      <stop
         id="stop23421"
         style="stop-color:#000000;stop-opacity:1"
         offset="0" />
      <stop
         id="stop23423"
         style="stop-color:#000000;stop-opacity:0"
         offset="1" />
    </linearGradient>
    <linearGradient
       x1="103.95014"
       y1="-7.6656942"
       x2="89.423676"
       y2="-7.6656942"
       id="linearGradient2864"
       xlink:href="#linearGradient2793"
       gradientUnits="userSpaceOnUse"
       gradientTransform="matrix(0.37654594,0,0,0.35839049,-27.150809,31.67023)"
       spreadMethod="reflect" />
    <linearGradient
       id="linearGradient2793">
      <stop
         id="stop2795"
         style="stop-color:#868688;stop-opacity:1"
         offset="0" />
      <stop
         id="stop2797"
         style="stop-color:#d9d9da;stop-opacity:1"
         offset="1" />
    </linearGradient>
    <linearGradient
       x1="89.01844"
       y1="22.536863"
       x2="89.01844"
       y2="27.54611"
       id="linearGradient2866"
       xlink:href="#linearGradient3858"
       gradientUnits="userSpaceOnUse"
       gradientTransform="matrix(0.8224499,0,0,0.82905873,-65.448598,8.0771844)" />
    <linearGradient
       id="linearGradient3858">
      <stop
         id="stop3860"
         style="stop-color:#a0a0a0;stop-opacity:1"
         offset="0" />
      <stop
         id="stop3862"
         style="stop-color:#4a4a4a;stop-opacity:1"
         offset="1" />
    </linearGradient>
    <linearGradient
       x1="103.95014"
       y1="-7.6656942"
       x2="89.423676"
       y2="-7.6656942"
       id="linearGradient3813"
       xlink:href="#linearGradient2793-4"
       gradientUnits="userSpaceOnUse"
       gradientTransform="matrix(0.37654594,0,0,0.35839049,-27.150809,26.670231)"
       spreadMethod="reflect" />
    <linearGradient
       id="linearGradient2793-4">
      <stop
         id="stop2795-9"
         style="stop-color:#868688;stop-opacity:1"
         offset="0" />
      <stop
         id="stop2797-8"
         style="stop-color:#d9d9da;stop-opacity:1"
         offset="1" />
    </linearGradient>
    <linearGradient
       x1="89.01844"
       y1="22.536863"
       x2="89.01844"
       y2="27.54611"
       id="linearGradient3815"
       xlink:href="#linearGradient3858-22"
       gradientUnits="userSpaceOnUse"
       gradientTransform="matrix(0.8224499,0,0,0.82905873,-65.448598,3.077185)" />
    <linearGradient
       id="linearGradient3858-22">
      <stop
         id="stop3860-52"
         style="stop-color:#a0a0a0;stop-opacity:1"
         offset="0" />
      <stop
         id="stop3862-32"
         style="stop-color:#4a4a4a;stop-opacity:1"
         offset="1" />
    </linearGradient>
    <linearGradient
       x1="103.95014"
       y1="-7.6656942"
       x2="89.423676"
       y2="-7.6656942"
       id="linearGradient3878"
       xlink:href="#linearGradient2793-3-0"
       gradientUnits="userSpaceOnUse"
       gradientTransform="matrix(0.37654594,0,0,0.352792,-27.150809,21.746031)"
       spreadMethod="reflect" />
    <linearGradient
       id="linearGradient2793-3-0">
      <stop
         id="stop2795-3-9"
         style="stop-color:#868688;stop-opacity:1"
         offset="0" />
      <stop
         id="stop2797-7-4"
         style="stop-color:#d9d9da;stop-opacity:1"
         offset="1" />
    </linearGradient>
    <linearGradient
       x1="89.01844"
       y1="22.536863"
       x2="89.01844"
       y2="27.54611"
       id="linearGradient3880"
       xlink:href="#linearGradient3858-4-6"
       gradientUnits="userSpaceOnUse"
       gradientTransform="matrix(0.8224499,0,0,0.81610786,-65.448598,-1.478464)" />
    <linearGradient
       id="linearGradient3858-4-6">
      <stop
         id="stop3860-9-8"
         style="stop-color:#a0a0a0;stop-opacity:1"
         offset="0" />
      <stop
         id="stop3862-9-2"
         style="stop-color:#4a4a4a;stop-opacity:1"
         offset="1" />
    </linearGradient>
    <linearGradient
       id="linearGradient3844-4-1">
      <stop
         id="stop3846-6-6"
         style="stop-color:#a5a6a8;stop-opacity:1"
         offset="0" />
      <stop
         id="stop3848-9-0"
         style="stop-color:#e8e8e8;stop-opacity:1"
         offset="1" />
    </linearGradient>
    <linearGradient
       id="linearGradient2509-9-1">
      <stop
         id="stop2511-0-9"
         style="stop-color:#b3b3b3;stop-opacity:1"
         offset="0" />
      <stop
         id="stop2513-3-1"
         style="stop-color:#dadada;stop-opacity:1"
         offset="1" />
    </linearGradient>
    <linearGradient
       x1="102.30806"
       y1="-2.3925467"
       x2="102.30806"
       y2="-24.582239"
       id="linearGradient3198"
       xlink:href="#linearGradient3844-4-1"
       gradientUnits="userSpaceOnUse"
       gradientTransform="matrix(0.37845152,0,0,0.34136193,-27.338025,17.61463)"
       spreadMethod="reflect" />
    <linearGradient
       x1="109.95628"
       y1="-24.91135"
       x2="109.95628"
       y2="-2.3757858"
       id="linearGradient3200"
       xlink:href="#linearGradient2509-9-1"
       gradientUnits="userSpaceOnUse"
       gradientTransform="matrix(0.37845152,0,0,0.34136193,-27.338025,17.61463)" />
    <radialGradient
       cx="65.297462"
       cy="48.216358"
       r="31.000002"
       fx="65.297462"
       fy="48.216358"
       id="radialGradient3900-3"
       xlink:href="#linearGradient3242-7-3-8-0-4-58-06"
       gradientUnits="userSpaceOnUse"
       gradientTransform="matrix(0,0.52544994,-0.5716256,0,46.193389,-21.123812)" />
    <linearGradient
       id="linearGradient3242-7-3-8-0-4-58-06">
      <stop
         offset="0"
         style="stop-color:#cdf87e;stop-opacity:1"
         id="stop3244-5-8-5-6-4-3-8" />
      <stop
         offset="0.26238"
         style="stop-color:#a2e34f;stop-opacity:1"
         id="stop3246-9-5-1-5-3-0-7" />
      <stop
         offset="0.66093999"
         style="stop-color:#68b723;stop-opacity:1"
         id="stop3248-7-2-0-7-5-35-9" />
      <stop
         offset="1"
         style="stop-color:#1d7e0d;stop-opacity:1"
         id="stop3250-8-2-8-5-6-40-4" />
    </linearGradient>
    <linearGradient
       x1="24.138529"
       y1="10.631441"
       x2="24.138529"
       y2="35.62291"
       id="linearGradient3030"
       xlink:href="#linearGradient4154-3"
       gradientUnits="userSpaceOnUse"
       gradientTransform="matrix(0.2817955,0,0,0.2800956,12.196562,12.014885)" />
    <linearGradient
       id="linearGradient4154-3">
      <stop
         id="stop4156-4"
         style="stop-color:#ffffff;stop-opacity:1"
         offset="0" />
      <stop
         id="stop4158-4"
         style="stop-color:#ffffff;stop-opacity:0.23529412"
         offset="0.00000002" />
      <stop
         id="stop4160-52"
         style="stop-color:#ffffff;stop-opacity:0.15686275"
         offset="1" />
      <stop
         id="stop4162-8"
         style="stop-color:#ffffff;stop-opacity:0.39215687"
         offset="1" />
    </linearGradient>
    <linearGradient
       x1="24.138529"
       y1="21.34207"
       x2="24.138529"
       y2="24.912279"
       id="linearGradient3030-1"
       xlink:href="#linearGradient4333"
       gradientUnits="userSpaceOnUse"
       gradientTransform="matrix(0.2817955,0,0,0.2800956,12.178741,12.02218)" />
    <linearGradient
       id="linearGradient4333">
      <stop
         offset="0"
         style="stop-color:#ffffff;stop-opacity:1"
         id="stop4335" />
      <stop
         offset="0.00000019"
         style="stop-color:#ffffff;stop-opacity:0.23529412"
         id="stop4337" />
      <stop
         offset="1"
         style="stop-color:#ffffff;stop-opacity:0.15686275"
         id="stop4339" />
      <stop
         offset="1"
         style="stop-color:#ffffff;stop-opacity:0.39215687"
         id="stop4341" />
    </linearGradient>
    <linearGradient
       x1="25"
       y1="0"
       x2="25"
       y2="16.000105"
       id="linearGradient3262"
       xlink:href="#linearGradient3309"
       gradientUnits="userSpaceOnUse"
       gradientTransform="translate(-17.058189)" />
    <linearGradient
       x1="63.9995"
       y1="3.1001"
       x2="63.9995"
       y2="122.8994"
       id="linearGradient3309"
       gradientUnits="userSpaceOnUse">
      <stop
         id="stop3311"
         style="stop-color:#f6f6f6;stop-opacity:1"
         offset="0" />
      <stop
         id="stop3313"
         style="stop-color:#cccccc;stop-opacity:1"
         offset="1" />
    </linearGradient>
    <linearGradient
       x1="21"
       y1="0"
       x2="21"
       y2="16.004715"
       id="linearGradient3264"
       xlink:href="#linearGradient3397"
       gradientUnits="userSpaceOnUse"
       gradientTransform="translate(-17.058189)" />
    <linearGradient
       id="linearGradient3397">
      <stop
         id="stop3399"
         style="stop-color:#aaaaaa;stop-opacity:1"
         offset="0" />
      <stop
         id="stop3401"
         style="stop-color:#8c8c8c;stop-opacity:1"
         offset="1" />
    </linearGradient>
    <linearGradient
       x1="86.132919"
       y1="105.105"
       x2="84.63858"
       y2="20.895"
       id="linearGradient3260"
       xlink:href="#linearGradient5128"
       gradientUnits="userSpaceOnUse"
       gradientTransform="matrix(0.09614231,0,0,0.09614231,1.8468935,1.9430362)" />
    <linearGradient
       id="linearGradient5128">
      <stop
         id="stop5130"
         style="stop-color:#e5e5e5;stop-opacity:1"
         offset="0" />
      <stop
         id="stop5132"
         style="stop-color:#ababab;stop-opacity:1"
         offset="1" />
    </linearGradient>
  </defs>
  <metadata
     id="metadata3207">
    <rdf:RDF>
      <cc:Work
         rdf:about="">
        <dc:format>image/svg+xml</dc:format>
        <dc:type
           rdf:resource="http://purl.org/dc/dcmitype/StillImage" />
        <dc:title />
      </cc:Work>
    </rdf:RDF>
  </metadata>
  <g
     transform="translate(0,-8)"
     id="layer1">
    <g
       id="layer1-0">
      <path
         d="M 23,27.500001 C 23.000931,29.985169 18.075796,32 12,32 5.9242042,32 0.99906174,29.985169 1.0000001,27.500001 0.99906089,25.014831 5.9242042,23 12,23 c 6.075796,0 11.000939,2.014831 11,4.500001 z"
         id="path23417"
         style="opacity:0.3;fill:url(#radialGradient3984);fill-opacity:1;fill-rule:evenodd;stroke:none;stroke-width:2;marker:none;visibility:visible;display:inline;overflow:visible" />
      <path
         d="m 21.441286,26.825403 c 0,2.028375 -4.234572,3.674596 -9.452159,3.674596 -5.2175947,0 -9.4521646,-1.646221 -9.4521646,-3.674596 0,-6.488122 -1.1553118,-3.598097 9.4521646,-3.674595 10.850407,-0.07892 9.452159,-2.849032 9.452159,3.674595 z"
         id="path4834"
         style="fill:url(#linearGradient2864);fill-opacity:1;stroke:url(#linearGradient2866);stroke-width:0.99999994;stroke-miterlimit:4;stroke-opacity:1;stroke-dasharray:none" />
      <path
         d="M 21.5,23.000001 C 21.5,24.932997 17.246704,26.5 12.000001,26.5 6.7532954,26.5 2.5,24.932997 2.5,23.000001 2.5,21.067003 6.7532954,19.5 12.000001,19.5 17.246704,19.5 21.5,21.067003 21.5,23.000001 l 0,0 z"
         id="path4838"
         style="fill:none;stroke:#d8d8d8;stroke-width:1;stroke-miterlimit:4;stroke-opacity:1;stroke-dasharray:none" />
      <path
         d="m 21.441286,21.825404 c 0,2.028375 -4.234572,3.674596 -9.452159,3.674596 -5.2175947,0 -9.4521646,-1.646221 -9.4521646,-3.674596 0,-6.488122 -1.1553118,-3.598097 9.4521646,-3.674595 10.850407,-0.07892 9.452159,-2.849032 9.452159,3.674595 z"
         id="path4834-7"
         style="fill:url(#linearGradient3813);fill-opacity:1;stroke:url(#linearGradient3815);stroke-width:0.99999994;stroke-miterlimit:4;stroke-opacity:1;stroke-dasharray:none" />
      <path
         d="m 21.5,18.000002 c 0,1.932996 -4.253296,3.499999 -9.499999,3.499999 C 6.7532954,21.500001 2.5,19.932998 2.5,18.000002 c 0,-1.932998 4.2532954,-3.500001 9.500001,-3.500001 5.246703,0 9.499999,1.567003 9.499999,3.500001 l 0,0 z"
         id="path4838-3"
         style="fill:none;stroke:#d8d8d8;stroke-width:1;stroke-miterlimit:4;stroke-opacity:1;stroke-dasharray:none" />
      <path
         d="m 21.441286,16.976886 c 0,1.99669 -4.234572,3.523114 -9.452159,3.523114 -5.2175947,0 -9.4521646,-1.526424 -9.4521646,-3.523114 0,-7.1907048 -1.1553118,-3.541892 9.4521646,-3.617194 10.850407,-0.0777 9.452159,-3.109574 9.452159,3.617194 z"
         id="path3878"
         style="fill:url(#linearGradient3878);fill-opacity:1;stroke:url(#linearGradient3880);stroke-width:0.99999994;stroke-miterlimit:4;stroke-opacity:1;stroke-dasharray:none" />
      <path
         d="m 21.5,13 c 0,1.932997 -4.253296,3.5 -9.499999,3.5 C 6.7532955,16.5 2.5,14.932997 2.5,13 2.5,11.067004 6.7532955,9.5 12.000001,9.5 17.246704,9.5 21.5,11.067004 21.5,13 l 0,0 z"
         id="path3880"
         style="fill:url(#linearGradient3198);fill-opacity:1;stroke:url(#linearGradient3200);stroke-width:0.99999994;stroke-miterlimit:4;stroke-opacity:1;stroke-dasharray:none" />
    </g>
    <rect
       width="17"
       height="19"
       rx="17.5"
       ry="3"
       x="3.5"
       y="10.5"
       id="rect3145"
       style="opacity:0.5;color:#000000;fill:none;stroke:url(#linearGradient3110);stroke-width:1;stroke-opacity:1;marker:none;visibility:visible;display:inline;overflow:visible;enable-background:accumulate" />
  </g>
  <g
     style="stroke-width:1.36364"
     transform="matrix(0.73333333,0,0,0.73333333,12.133333,12.133335)"
     id="layer1-3">
    <g
       style="stroke-width:1.36364"
       id="g2479">
      <path
         d="M 6.9375,0.5 C 6.6890831,0.5 6.5,0.68908218 6.5,0.9375 v 1.25 C 5.9460971,2.3297005 5.448836,2.5593783 4.96875,2.84375 L 4.0625,1.9375 c -0.1756569,-0.1756579 -0.449342,-0.1756579 -0.625,0 l -1.5,1.5 c -0.175657,0.1756579 -0.175657,0.4493421 0,0.625 L 2.84375,4.96875 C 2.5593789,5.4488356 2.329701,5.9460968 2.1875,6.5 h -1.25 C 0.68908301,6.5 0.5,6.6890821 0.5,6.9375 v 2.125 c 1e-8,0.2484178 0.189083,0.4375 0.4375,0.4375 h 1.25 c 0.1422009,0.553903 0.371879,1.051164 0.65625,1.53125 L 1.9375,11.9375 c -0.175657,0.175658 -0.175657,0.449342 0,0.625 l 1.5,1.5 c 0.1756579,0.175658 0.449342,0.175658 0.625,0 L 4.96875,13.15625 C 5.4488361,13.440622 5.946097,13.6703 6.5,13.8125 v 1.25 c 1e-7,0.248418 0.189083,0.4375 0.4375,0.4375 h 2.125 C 9.3109176,15.5 9.5,15.310918 9.5,15.0625 v -1.25 c 0.553903,-0.1422 1.051164,-0.371878 1.53125,-0.65625 l 0.90625,0.90625 c 0.175658,0.175658 0.449342,0.175658 0.625,0 l 1.5,-1.5 c 0.175658,-0.175658 0.175658,-0.449342 0,-0.625 L 13.15625,11.03125 C 13.440622,10.551164 13.6703,10.053903 13.8125,9.5 h 1.25 C 15.310918,9.5 15.5,9.3109174 15.5,9.0625 V 6.9375 C 15.5,6.6890822 15.310917,6.5 15.0625,6.5 h -1.25 C 13.6703,5.9460968 13.440622,5.4488356 13.15625,4.96875 L 14.0625,4.0625 c 0.175658,-0.1756579 0.175658,-0.449342 0,-0.625 l -1.5,-1.5 c -0.175658,-0.1756579 -0.449342,-0.1756579 -0.625,0 L 11.03125,2.84375 C 10.551164,2.5593783 10.053903,2.3297005 9.5,2.1875 v -1.25 C 9.4999996,0.68908218 9.310918,0.5 9.0625,0.5 Z M 8,6 c 1.104,0 2,0.896 2,2 0,1.104 -0.896,2 -2,2 C 6.896,10 6,9.104 6,8 6,6.896 6.896,6 8,6 Z"
         id="path2426"
         style="display:block;overflow:visible;visibility:visible;fill:url(#linearGradient3262);fill-opacity:1;fill-rule:nonzero;stroke:#7e8087;stroke-width:1.36364;stroke-linecap:butt;stroke-linejoin:round;stroke-miterlimit:4;stroke-dasharray:none;stroke-dashoffset:0;stroke-opacity:1;marker:none;enable-background:accumulate" />
      <path
         d="M 8,3.465116 C 5.4994229,3.465116 3.4651163,5.499423 3.4651163,8 3.4651163,10.500577 5.4994229,12.534884 8,12.534884 10.500576,12.534883 12.534884,10.500577 12.534884,8 12.534884,5.499423 10.500576,3.465116 8,3.465116 Z M 8,5.55814 c 1.347907,0 2.44186,1.093953 2.44186,2.44186 0,1.347907 -1.093953,2.44186 -2.44186,2.44186 C 6.652093,10.44186 5.5581395,9.347907 5.5581395,8 5.5581395,6.652093 6.652093,5.55814 8,5.55814 Z"
         id="path3315"
         style="opacity:0.05;fill:#000000;fill-opacity:1;stroke:none;stroke-width:1.36364" />
    </g>
  </g>
</svg>
